<mxfile host="app.diagrams.net" modified="2023-08-09T09:46:08.370Z" agent="Mozilla/5.0 (Macintosh; Intel Mac OS X 10_15_7) AppleWebKit/537.36 (KHTML, like Gecko) Chrome/115.0.0.0 Safari/537.36" version="21.6.7" etag="O2TYaWrW9wqjZwM0Bupb" type="github">
  <diagram name="페이지-1" id="K-7A4WDLgLZdxxtS4gzw">
    <mxGraphModel>
      <root>
        <mxCell id="0" />
        <mxCell id="1" parent="0" />
      </root>
    </mxGraphModel>
  </diagram>
</mxfile>
